<svg width="64" height="44" viewBox="0 0 64 44" fill="none" xmlns="http://www.w3.org/2000/svg">
<path d="M44.9916 14.2615H17.4748C16.8977 14.2615 16.4287 14.7322 16.4789 15.2853C17.082 21.8701 23.4572 27.0518 31.2323 27.0518C39.0073 27.0518 45.3825 21.8701 45.9856 15.2853C46.0377 14.7322 45.5686 14.2615 44.9916 14.2615Z" fill="#FF6633"/>
<path d="M26.266 4.40841C25.9589 4.40841 25.6536 4.27596 25.4544 4.0218C24.4493 2.75101 22.5395 1.95989 20.4715 1.95989C18.4035 1.95989 16.4937 2.74922 15.4886 4.0218C15.148 4.45316 14.5076 4.53549 14.0609 4.20795C13.6123 3.88041 13.5267 3.2647 13.8673 2.83513C15.2708 1.05959 17.739 0 20.4715 0C23.204 0 25.6722 1.05959 27.0776 2.83513C27.4182 3.26648 27.3307 3.88041 26.884 4.20795C26.6978 4.34398 26.4819 4.40841 26.266 4.40841Z" fill="#414141"/>
<path d="M47.7879 4.40841C47.4807 4.40841 47.1755 4.27596 46.9763 4.0218C45.9711 2.75101 44.0614 1.95989 41.9934 1.95989C39.9254 1.95989 38.0156 2.74922 37.0104 4.0218C36.6698 4.45316 36.0295 4.53549 35.5828 4.20795C35.1342 3.88041 35.0485 3.2647 35.3892 2.83513C36.7927 1.05959 39.2609 0 41.9934 0C44.7259 0 47.1941 1.05959 48.5994 2.83513C48.9401 3.26648 48.8526 3.88041 48.4058 4.20795C48.2197 4.34398 48.0038 4.40841 47.7879 4.40841Z" fill="#414141"/>
<path d="M2.85197 30.0033L2.45178 31.0217C2.41641 31.1058 2.28797 31.1398 2.16885 31.0986C1.89708 31.0199 1.61601 30.8785 1.32192 30.6709C1.02968 30.4668 0.798866 30.2503 0.627619 30.0229C0.368886 29.6775 0.188332 29.3016 0.087817 28.9007C-0.00897503 28.4962 -0.0238661 28.106 0.0338368 27.723C0.0952625 27.3435 0.236728 26.9766 0.456371 26.6258C0.677876 26.275 0.962668 25.9761 1.32005 25.7291C1.67558 25.4821 2.06089 25.3138 2.47597 25.2226C2.89106 25.1313 3.29871 25.117 3.69332 25.1814C4.09352 25.2458 4.47324 25.3836 4.83807 25.6002C5.20663 25.815 5.5212 26.0978 5.77993 26.4432C5.9456 26.6652 6.0852 26.9462 6.19316 27.2809C6.30484 27.6156 6.36068 27.9288 6.35882 28.2223C6.36068 28.3405 6.2732 28.43 6.17641 28.4336L5.04841 28.464C4.94045 28.464 4.8511 28.3673 4.8511 28.2295C4.85482 28.0631 4.83249 27.8948 4.77851 27.7194C4.72453 27.544 4.65566 27.399 4.57003 27.2845C4.29269 26.9158 3.92413 26.692 3.46251 26.6204C3.00461 26.547 2.58766 26.6437 2.20421 26.9086C1.82449 27.1717 1.5974 27.5225 1.52667 27.9646C1.45966 28.4031 1.5639 28.8112 1.84124 29.1799C1.92687 29.2945 2.04413 29.4019 2.19677 29.5021C2.35126 29.6041 2.50203 29.6811 2.65653 29.7294C2.8073 29.7759 2.89106 29.8959 2.85197 30.0033Z" fill="#414141"/>
<path d="M7.35467 28.8363C7.44774 28.7378 7.56686 28.7342 7.66738 28.8237L10.5637 31.3832C10.6661 31.4727 10.6698 31.5873 10.5767 31.6839L9.92524 32.3641C9.82659 32.4679 9.72049 32.4715 9.61253 32.3766L7.65807 30.6494L6.97308 31.3653L8.45661 32.6773C8.56829 32.7757 8.57946 32.8939 8.47894 32.9977L7.941 33.5597C7.84793 33.6581 7.72322 33.6563 7.6134 33.5597L6.12988 32.2477L5.42627 32.9852L7.38073 34.7124C7.51847 34.8341 7.52964 34.9916 7.41237 35.1115L6.80184 35.7505C6.71063 35.8453 6.58964 35.8471 6.48912 35.7576L3.53324 33.148C3.43087 33.0585 3.42342 32.9476 3.51649 32.8491L7.35467 28.8363Z" fill="#414141"/>
<path d="M13.62 37.2575C13.6126 37.5421 13.5288 37.8088 13.3669 38.0576C13.0597 38.5319 12.6614 38.804 12.1719 38.8756C11.686 38.949 11.1556 38.8165 10.5841 38.4729L8.57195 37.2665C8.47888 37.211 8.46213 37.1394 8.51797 37.0535L11.5818 32.3283C11.6377 32.2424 11.7121 32.2263 11.8033 32.2817L13.6666 33.3986C14.2119 33.7262 14.5526 34.1056 14.6903 34.5388C14.8281 34.9719 14.7499 35.4176 14.4558 35.8722C14.2194 36.2373 13.8062 36.4772 13.3911 36.4897C13.5512 36.7188 13.6275 36.973 13.62 37.2575ZM11.2858 37.356C11.6153 37.5547 11.9541 37.4813 12.1551 37.1716C12.3524 36.8674 12.2649 36.5541 11.9336 36.3572L11.0885 35.8507L10.4408 36.8495L11.2858 37.356ZM12.237 34.0823L11.6898 34.9254L12.3878 35.3442C12.6689 35.5124 12.9481 35.4534 13.1156 35.1938C13.2831 34.9343 13.2142 34.6694 12.9332 34.5012L12.237 34.0823Z" fill="#414141"/>
<path d="M16.4648 35.1866C16.5169 35.0631 16.6249 35.0184 16.7533 35.0685L20.4035 36.4771C20.532 36.5272 20.5785 36.6311 20.5264 36.7546L20.169 37.6119C20.115 37.7425 20.0163 37.7819 19.8805 37.73L17.416 36.7796L17.04 37.6817L18.9107 38.403C19.0503 38.4567 19.1043 38.5641 19.0503 38.6948L18.7543 39.4035C18.7022 39.527 18.5868 39.5682 18.4472 39.5145L16.5765 38.7932L16.1893 39.7221L18.6538 40.6725C18.8288 40.7406 18.8958 40.882 18.8306 41.0359L18.4937 41.8413C18.4435 41.9612 18.3318 42.0042 18.2034 41.9541L14.4787 40.5168C14.3503 40.4667 14.3019 40.3665 14.354 40.243L16.4648 35.1866Z" fill="#414141"/>
<path d="M23.9772 37.3452C24.6138 37.4794 25.0885 37.7694 25.4012 38.2186C25.7139 38.6643 25.8051 39.1887 25.6655 39.7937C25.5296 40.3915 25.2188 40.8282 24.7404 41.1057C24.262 41.3795 23.7073 41.4511 23.0689 41.3169L22.3541 41.1665L21.9967 42.7291C21.9669 42.8579 21.8683 42.9206 21.725 42.8902L20.6789 42.67C20.5449 42.6414 20.4853 42.5465 20.5132 42.4176L21.7287 37.0964C21.7566 36.9747 21.8627 36.9031 21.9893 36.9299L22.5161 37.0409L23.0466 37.1537L23.9772 37.3452ZM23.3034 40.0103C23.5119 40.055 23.7018 40.0246 23.8674 39.9244C24.0368 39.8241 24.1429 39.6738 24.1894 39.4733C24.236 39.2729 24.2043 39.0939 24.0945 38.9346C23.9903 38.7717 23.8302 38.6679 23.6217 38.6249L22.9684 38.4871L22.6519 39.8742L23.3034 40.0103Z" fill="#414141"/>
<path d="M31.2772 38.131C31.4075 38.1382 31.4894 38.2313 31.482 38.3548L31.1693 43.7995C31.1618 43.932 31.078 44.0089 30.9403 44L29.8719 43.9427C29.7248 43.9355 29.6466 43.8496 29.6541 43.7172L29.7472 42.0956L29.1255 42.0633L28.1371 43.6706C28.0496 43.8067 27.9937 43.8443 27.8727 43.8371L26.6237 43.7709C26.4897 43.7637 26.4227 43.6313 26.4953 43.5185L27.6736 41.6678C27.0965 41.2955 26.7838 40.6708 26.8266 39.9352C26.862 39.3213 27.091 38.838 27.5172 38.489C27.9435 38.1364 28.4851 37.9807 29.1366 38.0147L31.0036 38.1131L31.2772 38.131ZM29.8197 40.8391L29.9035 39.3768L29.1236 39.3356C28.9058 39.3249 28.7234 39.3821 28.5782 39.5074C28.433 39.6327 28.353 39.7974 28.3399 40.0068C28.3288 40.2162 28.3883 40.3952 28.5186 40.5509C28.6527 40.7031 28.8276 40.7854 29.0398 40.7961L29.8197 40.8391Z" fill="#414141"/>
<path d="M37.8851 37.5529C37.9894 37.5404 38.0489 37.5869 38.062 37.6907L38.7507 43.2178C38.7637 43.3216 38.7153 43.3789 38.6129 43.3914L37.4384 43.5274C37.3342 43.54 37.2746 43.4934 37.2616 43.3896L36.988 41.1935L34.7171 41.4548L34.9907 43.6509C35.0037 43.7548 34.9553 43.812 34.8529 43.8246L33.6821 43.9588C33.5742 43.9713 33.5146 43.9248 33.5016 43.821L32.8129 38.2939C32.7998 38.1901 32.8482 38.1328 32.9562 38.1203L34.127 37.986C34.2312 37.9735 34.2908 38.0201 34.3038 38.1239L34.5551 40.141L36.826 39.8797L36.5747 37.8625C36.5617 37.7587 36.6101 37.7015 36.7125 37.6889L37.8851 37.5529Z" fill="#414141"/>
<path d="M39.7981 38.9776C39.8316 38.5642 39.9395 38.1865 40.1182 37.8464C40.3006 37.5046 40.5519 37.1967 40.8739 36.9282C41.1941 36.6562 41.5608 36.4557 41.9777 36.3233C42.3947 36.1908 42.8135 36.1425 43.236 36.1783C43.6604 36.2087 44.0532 36.3125 44.4068 36.4844C44.7642 36.6544 45.0863 36.896 45.3655 37.2092C45.6484 37.5171 45.8569 37.8697 45.9946 38.2706C46.177 38.8022 46.2105 39.3338 46.097 39.86C45.9834 40.388 45.7433 40.8534 45.3655 41.2579C44.9932 41.6606 44.5278 41.947 43.9713 42.1242C43.5543 42.2566 43.1355 42.305 42.7111 42.2745C42.2849 42.2405 41.8921 42.1367 41.5347 41.9667C41.1811 41.7949 40.8609 41.555 40.5798 41.2489C40.3025 40.9393 40.0922 40.5867 39.9563 40.1894C39.8167 39.7884 39.7664 39.3857 39.7981 38.9776ZM42.2179 40.6601C42.6255 40.857 43.0518 40.882 43.4966 40.7406C43.9378 40.601 44.2598 40.3361 44.4664 39.9459C44.6712 39.554 44.7047 39.1512 44.5576 38.727C44.4106 38.2993 44.1332 37.9896 43.7256 37.7927C43.3179 37.5959 42.8935 37.5654 42.4543 37.705C42.0131 37.8446 41.6874 38.1131 41.4826 38.5051C41.2779 38.8971 41.2462 39.3052 41.3933 39.7312C41.5385 40.1571 41.8121 40.4632 42.2179 40.6601Z" fill="#414141"/>
<path d="M49.9469 32.774C50.0474 32.7185 50.1722 32.7561 50.2373 32.8635L53.0666 37.5815C53.128 37.6818 53.0945 37.8124 52.9884 37.8697L52.0503 38.3888C51.9461 38.4478 51.8176 38.4102 51.7562 38.31L50.8013 36.7188C50.684 37.1037 50.3974 37.4706 49.9935 37.6961C49.3699 38.0415 48.7482 38.131 48.1302 37.9682C47.5104 37.8017 47.0097 37.4026 46.63 36.7689L45.7719 35.3371C45.7104 35.2368 45.7383 35.1044 45.837 35.0507L46.7677 34.5352C46.8831 34.4708 47.019 34.503 47.0823 34.6104L47.9385 36.0387C48.2661 36.5846 48.7966 36.7224 49.3662 36.4074C49.6528 36.2481 49.8278 36.0441 49.9041 35.7935C49.9804 35.5429 49.9414 35.2852 49.785 35.0238L48.925 33.5884C48.8636 33.4881 48.8953 33.3539 48.9976 33.2984L49.9469 32.774Z" fill="#414141"/>
<path d="M59.2315 32.6002C59.3749 32.6342 59.4437 32.7631 59.3358 32.8562L58.3008 33.7457C58.2357 33.8012 58.1575 33.8263 58.0737 33.8155L55.3878 33.1461L54.7456 33.6974L56.231 35.2957C56.3036 35.3745 56.2998 35.4479 56.2217 35.5141L55.3338 36.2784C55.2519 36.3482 55.1756 36.3446 55.103 36.2658L51.2499 32.1187C51.181 32.0436 51.1848 31.9702 51.2648 31.9004L52.1527 31.1361C52.2309 31.0699 52.3072 31.0735 52.3779 31.1486L53.7926 32.6718L54.2951 32.2405L54.0587 29.6989C54.0439 29.5449 54.0922 29.4823 54.2021 29.3874L55.2277 28.5068C55.3431 28.4084 55.4697 28.4835 55.4827 28.6428L55.76 31.7482L59.2315 32.6002Z" fill="#414141"/>
<path d="M63.8454 26.6723C63.9888 26.7063 64.0465 26.8083 63.9534 26.9372L63.2703 27.8715C63.2033 27.9628 63.0748 28.0003 62.952 27.9717L62.1367 27.7444L60.9175 29.4107L61.4145 30.0658C61.4908 30.1571 61.4964 30.2896 61.4219 30.3898L60.7406 31.3205C60.6513 31.4422 60.534 31.4369 60.4447 31.3116L57.096 26.4217C57.0216 26.3071 57.0253 26.1765 57.0923 26.0852L57.6005 25.3907C57.6675 25.2994 57.8015 25.2565 57.9262 25.2869L63.8454 26.6723ZM60.1301 28.3762L60.856 27.3828L58.9779 26.8548L60.1301 28.3762Z" fill="#414141"/>
</svg>
