<svg width="65" height="44" viewBox="0 0 65 44" fill="none" xmlns="http://www.w3.org/2000/svg">
<path d="M45.4916 14.2615H17.9748C17.3977 14.2615 16.9287 14.7322 16.9789 15.2853C17.582 21.8701 23.9572 27.0518 31.7323 27.0518C39.5073 27.0518 45.8825 21.8701 46.4856 15.2853C46.5377 14.7322 46.0686 14.2615 45.4916 14.2615Z" fill="#FF6633"/>
<path d="M26.766 4.40841C26.4589 4.40841 26.1536 4.27596 25.9544 4.0218C24.9493 2.75101 23.0395 1.95989 20.9715 1.95989C18.9035 1.95989 16.9937 2.74922 15.9886 4.0218C15.648 4.45316 15.0076 4.53549 14.5609 4.20795C14.1123 3.88041 14.0267 3.2647 14.3673 2.83513C15.7708 1.05959 18.239 0 20.9715 0C23.704 0 26.1722 1.05959 27.5776 2.83513C27.9182 3.26648 27.8307 3.88041 27.384 4.20795C27.1978 4.34398 26.9819 4.40841 26.766 4.40841Z" fill="#414141"/>
<path d="M48.2879 4.40841C47.9807 4.40841 47.6755 4.27596 47.4763 4.0218C46.4711 2.75101 44.5614 1.95989 42.4934 1.95989C40.4254 1.95989 38.5156 2.74922 37.5104 4.0218C37.1698 4.45316 36.5295 4.53549 36.0828 4.20795C35.6342 3.88041 35.5485 3.2647 35.8892 2.83513C37.2927 1.05959 39.7609 0 42.4934 0C45.2259 0 47.6941 1.05959 49.0994 2.83513C49.4401 3.26648 49.3526 3.88041 48.9058 4.20795C48.7197 4.34398 48.5038 4.40841 48.2879 4.40841Z" fill="#414141"/>
<path d="M3.35197 30.0031L2.95178 31.0216C2.91641 31.1057 2.78797 31.1397 2.66885 31.0985C2.39708 31.0198 2.11601 30.8784 1.82192 30.6707C1.52968 30.4667 1.29887 30.2501 1.12762 30.0228C0.868886 29.6774 0.688332 29.3015 0.587817 28.9006C0.491025 28.4961 0.476134 28.1059 0.533837 27.7229C0.595263 27.3434 0.736728 26.9765 0.956371 26.6257C1.17788 26.2749 1.46267 25.976 1.82005 25.729C2.17558 25.482 2.56089 25.3137 2.97597 25.2224C3.39106 25.1311 3.79871 25.1168 4.19332 25.1813C4.59352 25.2457 4.97324 25.3835 5.33807 25.6001C5.70663 25.8149 6.0212 26.0977 6.27993 26.4431C6.4456 26.6651 6.5852 26.9461 6.69316 27.2808C6.80484 27.6155 6.86068 27.9287 6.85882 28.2222C6.86068 28.3404 6.7732 28.4299 6.67641 28.4334L5.54841 28.4639C5.44045 28.4639 5.3511 28.3672 5.3511 28.2294C5.35482 28.0629 5.33249 27.8947 5.27851 27.7193C5.22453 27.5439 5.15566 27.3989 5.07003 27.2843C4.79269 26.9156 4.42413 26.6919 3.96251 26.6203C3.50461 26.5469 3.08766 26.6436 2.70421 26.9085C2.32449 27.1716 2.0974 27.5224 2.02667 27.9645C1.95966 28.403 2.0639 28.8111 2.34124 29.1798C2.42687 29.2944 2.54413 29.4017 2.69677 29.502C2.85126 29.604 3.00203 29.681 3.15653 29.7293C3.3073 29.7758 3.39106 29.8957 3.35197 30.0031Z" fill="#414141"/>
<path d="M7.85467 28.8361C7.94774 28.7377 8.06686 28.7341 8.16738 28.8236L11.0637 31.3831C11.1661 31.4726 11.1698 31.5872 11.0767 31.6838L10.4252 32.364C10.3266 32.4678 10.2205 32.4713 10.1125 32.3765L8.15807 30.6493L7.47308 31.3652L8.95661 32.6772C9.06829 32.7756 9.07946 32.8937 8.97894 32.9976L8.441 33.5596C8.34793 33.658 8.22322 33.6562 8.1134 33.5596L6.62988 32.2476L5.92627 32.985L7.88073 34.7122C8.01847 34.834 8.02964 34.9915 7.91237 35.1114L7.30184 35.7504C7.21063 35.8452 7.08964 35.847 6.98912 35.7575L4.03324 33.1479C3.93087 33.0584 3.92342 32.9474 4.01649 32.849L7.85467 28.8361Z" fill="#414141"/>
<path d="M14.12 37.2574C14.1126 37.542 14.0288 37.8087 13.8669 38.0575C13.5597 38.5318 13.1614 38.8039 12.6719 38.8755C12.186 38.9488 11.6556 38.8164 11.0841 38.4727L9.07195 37.2664C8.97888 37.2109 8.96213 37.1393 9.01797 37.0534L12.0818 32.3282C12.1377 32.2422 12.2121 32.2261 12.3033 32.2816L14.1666 33.3985C14.7119 33.726 15.0526 34.1055 15.1903 34.5386C15.3281 34.9718 15.2499 35.4174 14.9558 35.8721C14.7194 36.2372 14.3062 36.477 13.8911 36.4896C14.0512 36.7187 14.1275 36.9728 14.12 37.2574ZM11.7859 37.3559C12.1153 37.5545 12.4541 37.4812 12.6551 37.1715C12.8524 36.8672 12.7649 36.554 12.4336 36.3571L11.5885 35.8506L10.9408 36.8493L11.7859 37.3559ZM12.737 34.0822L12.1898 34.9252L12.8878 35.3441C13.1689 35.5123 13.4481 35.4532 13.6156 35.1937C13.7831 34.9342 13.7142 34.6693 13.4332 34.501L12.737 34.0822Z" fill="#414141"/>
<path d="M16.9648 35.1866C17.0169 35.0631 17.1249 35.0184 17.2533 35.0685L20.9035 36.4771C21.032 36.5272 21.0785 36.6311 21.0264 36.7546L20.669 37.6119C20.615 37.7425 20.5163 37.7819 20.3805 37.73L17.916 36.7796L17.54 37.6817L19.4107 38.403C19.5503 38.4567 19.6043 38.5641 19.5503 38.6948L19.2543 39.4035C19.2022 39.527 19.0868 39.5682 18.9472 39.5145L17.0765 38.7932L16.6893 39.7221L19.1538 40.6725C19.3288 40.7406 19.3958 40.882 19.3306 41.0359L18.9937 41.8413C18.9435 41.9612 18.8318 42.0042 18.7034 41.9541L14.9787 40.5168C14.8503 40.4667 14.8019 40.3665 14.854 40.243L16.9648 35.1866Z" fill="#414141"/>
<path d="M24.4772 37.3449C25.1138 37.4792 25.5885 37.7691 25.9012 38.2184C26.2139 38.6641 26.3051 39.1885 26.1655 39.7935C26.0296 40.3913 25.7188 40.828 25.2404 41.1054C24.762 41.3793 24.2073 41.4509 23.5689 41.3166L22.8541 41.1663L22.4967 42.7288C22.4669 42.8577 22.3683 42.9203 22.225 42.8899L21.1789 42.6698C21.0449 42.6411 20.9853 42.5463 21.0132 42.4174L22.2287 37.0961C22.2566 36.9744 22.3627 36.9028 22.4893 36.9297L23.0161 37.0407L23.5466 37.1534L24.4772 37.3449ZM23.8034 40.01C24.0119 40.0548 24.2018 40.0244 24.3674 39.9241C24.5368 39.8239 24.6429 39.6735 24.6894 39.4731C24.736 39.2726 24.7043 39.0936 24.5945 38.9343C24.4903 38.7715 24.3302 38.6676 24.1217 38.6247L23.4684 38.4869L23.1519 39.874L23.8034 40.01Z" fill="#414141"/>
<path d="M31.7772 38.1309C31.9075 38.1381 31.9894 38.2311 31.982 38.3546L31.6693 43.7994C31.6618 43.9318 31.578 44.0088 31.4403 43.9998L30.3719 43.9426C30.2248 43.9354 30.1466 43.8495 30.1541 43.7171L30.2472 42.0954L29.6255 42.0632L28.6371 43.6705C28.5496 43.8065 28.4937 43.8441 28.3727 43.837L27.1237 43.7707C26.9897 43.7636 26.9227 43.6311 26.9953 43.5184L28.1736 41.6677C27.5965 41.2954 27.2838 40.6707 27.3266 39.9351C27.362 39.3212 27.591 38.8379 28.0172 38.4889C28.4435 38.1363 28.9851 37.9806 29.6366 38.0146L31.5036 38.113L31.7772 38.1309ZM30.3197 40.839L30.4035 39.3767L29.6236 39.3355C29.4058 39.3248 29.2234 39.382 29.0782 39.5073C28.933 39.6326 28.853 39.7973 28.8399 40.0067C28.8288 40.2161 28.8883 40.3951 29.0186 40.5508C29.1527 40.7029 29.3276 40.7853 29.5398 40.796L30.3197 40.839Z" fill="#414141"/>
<path d="M38.3851 37.5528C38.4894 37.5402 38.5489 37.5868 38.562 37.6906L39.2507 43.2177C39.2637 43.3215 39.2153 43.3788 39.1129 43.3913L37.9384 43.5273C37.8342 43.5398 37.7746 43.4933 37.7616 43.3895L37.488 41.1933L35.2171 41.4547L35.4907 43.6508C35.5037 43.7546 35.4553 43.8119 35.3529 43.8244L34.1821 43.9587C34.0742 43.9712 34.0146 43.9247 34.0016 43.8209L33.3129 38.2938C33.2998 38.19 33.3482 38.1327 33.4562 38.1202L34.627 37.9859C34.7312 37.9734 34.7908 38.0199 34.8038 38.1237L35.0551 40.1409L37.326 39.8796L37.0747 37.8624C37.0617 37.7586 37.1101 37.7013 37.2125 37.6888L38.3851 37.5528Z" fill="#414141"/>
<path d="M40.2981 38.9775C40.3316 38.564 40.4395 38.1864 40.6182 37.8463C40.8006 37.5045 41.0519 37.1966 41.3739 36.9281C41.6941 36.6561 42.0608 36.4556 42.4777 36.3232C42.8947 36.1907 43.3135 36.1424 43.736 36.1782C44.1604 36.2086 44.5532 36.3124 44.9068 36.4842C45.2642 36.6543 45.5863 36.8959 45.8655 37.2091C46.1484 37.517 46.3569 37.8696 46.4946 38.2705C46.677 38.8021 46.7105 39.3337 46.597 39.8599C46.4834 40.3879 46.2433 40.8533 45.8655 41.2578C45.4932 41.6605 45.0278 41.9469 44.4713 42.1241C44.0543 42.2565 43.6355 42.3048 43.2111 42.2744C42.7849 42.2404 42.3921 42.1366 42.0347 41.9666C41.6811 41.7947 41.3609 41.5549 41.0798 41.2488C40.8025 40.9392 40.5922 40.5866 40.4563 40.1892C40.3167 39.7883 40.2664 39.3856 40.2981 38.9775ZM42.7179 40.66C43.1255 40.8568 43.5518 40.8819 43.9966 40.7405C44.4378 40.6009 44.7598 40.336 44.9664 39.9458C45.1712 39.5538 45.2047 39.1511 45.0576 38.7269C44.9106 38.2991 44.6332 37.9895 44.2256 37.7926C43.8179 37.5957 43.3935 37.5653 42.9543 37.7049C42.5131 37.8445 42.1874 38.113 41.9826 38.505C41.7779 38.897 41.7462 39.305 41.8933 39.731C42.0385 40.157 42.3121 40.4631 42.7179 40.66Z" fill="#414141"/>
<path d="M50.4469 32.7738C50.5474 32.7183 50.6722 32.7559 50.7373 32.8632L53.5666 37.5813C53.628 37.6815 53.5945 37.8122 53.4884 37.8695L52.5503 38.3885C52.4461 38.4476 52.3176 38.41 52.2562 38.3098L51.3013 36.7186C51.184 37.1034 50.8974 37.4703 50.4935 37.6959C49.8699 38.0413 49.2482 38.1308 48.6302 37.9679C48.0104 37.8015 47.5097 37.4023 47.13 36.7687L46.2719 35.3368C46.2104 35.2366 46.2383 35.1041 46.337 35.0504L47.2677 34.535C47.3831 34.4705 47.519 34.5028 47.5823 34.6101L48.4385 36.0384C48.7661 36.5844 49.2966 36.7222 49.8662 36.4072C50.1528 36.2479 50.3278 36.0438 50.4041 35.7932C50.4804 35.5427 50.4414 35.2849 50.285 35.0236L49.425 33.5881C49.3636 33.4879 49.3953 33.3537 49.4976 33.2982L50.4469 32.7738Z" fill="#414141"/>
<path d="M59.7315 32.6002C59.8749 32.6342 59.9437 32.7631 59.8358 32.8562L58.8008 33.7457C58.7357 33.8012 58.6575 33.8263 58.5737 33.8155L55.8878 33.1461L55.2456 33.6974L56.731 35.2957C56.8036 35.3745 56.7998 35.4479 56.7217 35.5141L55.8338 36.2784C55.7519 36.3482 55.6756 36.3446 55.603 36.2658L51.7499 32.1187C51.681 32.0436 51.6848 31.9702 51.7648 31.9004L52.6527 31.1361C52.7309 31.0699 52.8072 31.0735 52.8779 31.1486L54.2926 32.6718L54.7951 32.2405L54.5587 29.6989C54.5439 29.5449 54.5922 29.4823 54.7021 29.3874L55.7277 28.5068C55.8431 28.4084 55.9697 28.4835 55.9827 28.6428L56.26 31.7482L59.7315 32.6002Z" fill="#414141"/>
<path d="M64.3454 26.6721C64.4888 26.7062 64.5465 26.8082 64.4534 26.937L63.7703 27.8713C63.7033 27.9626 63.5748 28.0002 63.452 27.9716L62.6367 27.7443L61.4175 29.4106L61.9145 30.0657C61.9908 30.157 61.9964 30.2894 61.9219 30.3897L61.2406 31.3204C61.1513 31.4421 61.034 31.4367 60.9447 31.3114L57.596 26.4216C57.5216 26.307 57.5253 26.1764 57.5923 26.0851L58.1005 25.3906C58.1675 25.2993 58.3015 25.2564 58.4262 25.2868L64.3454 26.6721ZM60.6301 28.3761L61.356 27.3827L59.4779 26.8547L60.6301 28.3761Z" fill="#414141"/>
</svg>
